<svg width="16" height="16" viewBox="0 0 16 16" fill="none" xmlns="http://www.w3.org/2000/svg">
<path fill-rule="evenodd" clip-rule="evenodd" d="M7.22481 9.69642L10.2256 14.5648C10.3569 14.7781 10.562 14.7757 10.6449 14.7642C10.7278 14.7527 10.9272 14.7018 10.9994 14.4597L14.7518 1.78627C14.8174 1.56226 14.6968 1.40964 14.6426 1.35548C14.5901 1.30132 14.44 1.18563 14.2225 1.24717L1.54001 4.961C1.29959 5.03157 1.24707 5.23342 1.23558 5.3163C1.2241 5.40082 1.22081 5.61006 1.43334 5.74381L6.35749 8.82335L10.7081 4.42682C10.9468 4.18557 11.3366 4.18311 11.5787 4.42189C11.8207 4.66068 11.8224 5.05126 11.5836 5.2925L7.22481 9.69642ZM10.581 16.0004C10.0099 16.0004 9.48639 15.71 9.17786 15.2111L5.99657 10.0489L0.781123 6.78724C0.219043 6.43522 -0.0747157 5.80832 0.0163659 5.14941C0.106627 4.49051 0.558753 3.96699 1.19386 3.78073L13.8764 0.0668978C14.4598 -0.103778 15.085 0.0578716 15.515 0.486201C15.945 0.918634 16.105 1.55046 15.931 2.13634L12.1786 14.809C11.9907 15.4466 11.4656 15.897 10.8083 15.9848C10.7312 15.9947 10.6565 16.0004 10.581 16.0004Z" fill="white"/>
</svg>
